<svg width="120" height="129" viewBox="0 0 60 69" fill="none" xmlns="http://www.w3.org/2000/svg">
<path d="M58.7881 14.4271C58.5672 14.2497 58.3023 14.1357 58.0216 14.0973C57.7409 14.0589 57.4551 14.0976 57.1947 14.2092L31.8372 25.1896C30.7347 25.6699 29.354 25.8983 27.9365 25.8983C25.9599 25.9062 23.915 25.4468 22.4896 24.8221C22.0552 24.6391 21.6416 24.4103 21.2559 24.1396C21.3609 24.0871 21.4921 24.0293 21.6365 23.9716L44.6997 13.9861L48.1385 15.4561V11.1589C48.1437 10.8525 48.0795 10.5488 47.9509 10.2707C47.8223 9.99248 47.6324 9.74695 47.3956 9.55243C47.1757 9.37522 46.9116 9.2613 46.6318 9.22292C46.352 9.18453 46.067 9.22312 45.8075 9.33455L20.45 20.3149C19.6677 20.6299 18.9957 21.0184 18.4287 21.5828C17.7722 22.2306 17.3993 23.1123 17.3919 24.0346C17.3919 24.0608 17.3997 24.1054 17.3997 24.1054V62.7717L17.3945 62.8242C17.3945 62.8347 17.4024 62.8399 17.4024 62.8504V62.8924H17.4076C17.4601 64.2443 18.1426 65.1053 18.7936 65.7143C20.8411 67.5203 24.2799 68.5309 27.9391 68.5834C29.6716 68.5834 31.4304 68.3209 33.0579 67.6227L58.4232 56.6397C59.0926 56.3509 59.531 55.6343 59.531 54.8232V16.0336C59.535 15.7273 59.4704 15.424 59.3418 15.146C59.2133 14.868 59.0241 14.6223 58.7881 14.4271ZM42.7047 7.07705C42.6601 6.49955 42.4212 5.9483 41.996 5.61755C41.7751 5.44015 41.5102 5.32616 41.2295 5.28778C40.9488 5.2494 40.663 5.28808 40.4026 5.39968L15.0451 16.3748C13.9426 16.8526 12.5592 17.0836 11.1444 17.0836C9.16773 17.0888 7.12286 16.6294 5.69748 16.0021C5.26267 15.8222 4.84894 15.595 4.46373 15.3248C4.56873 15.2723 4.69998 15.2146 4.84436 15.1568L27.9102 5.1713L31.349 6.6413V2.34943C31.3537 2.04281 31.289 1.73909 31.16 1.46092C31.0309 1.18275 30.8407 0.937321 30.6035 0.742929C30.383 0.565755 30.1185 0.451881 29.8383 0.413501C29.5581 0.375122 29.2727 0.413683 29.0127 0.525054L3.65523 11.5081C2.87298 11.8231 2.20361 12.2089 1.63398 12.7759C0.978365 13.4241 0.606447 14.3058 0.599731 15.2277C0.599731 15.2592 0.607606 15.3012 0.607606 15.3012V54.0908H0.612857C0.665357 55.4427 1.34786 56.3037 1.99886 56.9127C4.04636 58.7187 7.48511 59.7267 11.147 59.7792C12.1414 59.7733 13.1327 59.666 14.1054 59.4589V24.1028C14.0791 22.2653 14.8141 20.5013 16.1056 19.2308C17.0004 18.3629 18.0635 17.6875 19.2294 17.2463L42.7047 7.07705Z" fill="#1C1C1C"/>
</svg>
